<?xml version="1.0" encoding="utf-8"?>
<!-- Generator: Adobe Illustrator 22.1.0, SVG Export Plug-In . SVG Version: 6.00 Build 0)  -->
<svg version="1.1" id="Layer_1" xmlns="http://www.w3.org/2000/svg" xmlns:xlink="http://www.w3.org/1999/xlink" x="0px" y="0px"
	 viewBox="0 0 87 87" style="enable-background:new 0 0 87 87;" xml:space="preserve">
<style type="text/css">
	.st0{fill:none;stroke:#000000;stroke-linecap:round;stroke-linejoin:round;stroke-miterlimit:10;}
	.st1{fill:none;stroke:#231F20;stroke-miterlimit:10;}
	.st2{clip-path:url(#SVGID_2_);fill:none;stroke:#231F20;stroke-linecap:round;stroke-linejoin:round;stroke-miterlimit:10;}
	.st3{fill:none;stroke:#000000;stroke-width:0.9889;stroke-miterlimit:10;}
	.st4{fill:none;stroke:#231F20;stroke-linejoin:round;stroke-miterlimit:10;}
	.st5{fill:#231F20;}
	.st6{fill:none;stroke:#FFFFFF;stroke-width:2;stroke-linejoin:round;stroke-miterlimit:10;}
	.st7{fill:#333333;stroke:#000000;stroke-linecap:round;stroke-linejoin:round;stroke-miterlimit:10;}
	.st8{fill:none;stroke:#000000;stroke-linejoin:round;stroke-miterlimit:10;}
	.st9{fill:none;stroke:#000000;stroke-linecap:round;stroke-miterlimit:10;}
	.st10{fill:none;stroke:#000000;stroke-miterlimit:10;}
	.st11{clip-path:url(#SVGID_4_);fill:none;stroke:#231F20;stroke-miterlimit:10;}
	.st12{clip-path:url(#SVGID_6_);fill:none;stroke:#231F20;stroke-miterlimit:10;}
	.st13{fill:none;stroke:#231F20;stroke-width:2.0006;stroke-linejoin:round;stroke-miterlimit:10;}
	.st14{fill:none;stroke:#231F20;stroke-width:2.1821;stroke-linejoin:round;stroke-miterlimit:10;}
	.st15{fill:none;stroke:#231F20;stroke-width:2;stroke-linejoin:round;stroke-miterlimit:10;}
	.st16{fill:none;stroke:#000000;stroke-width:0.7874;stroke-linejoin:round;stroke-miterlimit:10;}
	.st17{fill:none;stroke:#231F20;stroke-width:2;stroke-miterlimit:10;}
	.st18{fill:none;stroke:#231F20;stroke-miterlimit:1;}
	.st19{fill:none;stroke:#231F20;stroke-width:0.7874;stroke-linejoin:round;stroke-miterlimit:10;}
	.st20{fill:none;stroke:#000000;stroke-width:0.5;stroke-linecap:round;stroke-linejoin:round;stroke-miterlimit:10;}
	.st21{fill:none;stroke:#FFFFFF;stroke-miterlimit:10;}
</style>
<g>
	<g>
		
			<ellipse transform="matrix(0.9732 -0.2298 0.2298 0.9732 -2.5513 65.6166)" class="st0" cx="280.5" cy="43.8" rx="42.2" ry="42.2"/>
	</g>
	<g>
		<path class="st0" d="M255.2,47.6c0,14.1,11.4,25.5,25.5,25.5c14.1,0,25.5-11.4,25.5-25.5H255.2z"/>
	</g>
	<path class="st0" d="M255,28.9c5.7-5.7,14.8-5.7,20.5,0"/>
	<path class="st0" d="M284.3,28.9c5.7-5.7,14.8-5.7,20.5,0"/>
</g>
<g>
	<path class="st1" d="M410,85.2h-67c-0.6,0-1-0.5-1-1V45.8c0-5.7,4.6-10.3,10.3-10.3h48.4c5.7,0,10.3,4.6,10.3,10.3v38.4
		C411,84.8,410.5,85.2,410,85.2z"/>
	<rect x="372.5" y="29.4" class="st1" width="7.2" height="6"/>
	<path class="st1" d="M383.8,17.6c0-4.3-6.2-14.6-7.8-14.6s-7.8,10.3-7.8,14.6s3.5,7.8,7.8,7.8S383.8,21.9,383.8,17.6z"/>
	<g>
		<defs>
			<path id="SVGID_1_" d="M410,85.2h-67c-0.6,0-1-0.5-1-1V45.7c0-5.7,4.6-10.3,10.3-10.3h48.4c5.7,0,10.3,4.6,10.3,10.3v38.4
				C411,84.7,410.5,85.2,410,85.2z"/>
		</defs>
		<clipPath id="SVGID_2_">
			<use xlink:href="#SVGID_1_"  style="overflow:visible;"/>
		</clipPath>
		<path class="st2" d="M335.2,54.5c0,0,1.5,11.1,14.1,11.1c12.6,0,13.3-10.3,13.3-10.3s2.1,10.6,13.6,10.6s13.2-10.1,13.2-10.1
			s2.5,10.1,13.2,10.1c10.6,0,13.1-10.1,13.1-10.1"/>
	</g>
</g>
<g>
	<path class="st3" d="M497.1,70.4c-8.2,8.2-13.7,13.3-29.6,1.7c-8.2-6-25.8-24.1-32.3-32.3c-11.7-14.6-8.1-19.7,1.7-29.6l16.2,16.2
		c-3.2,3.2-5.1,5.2,8.7,19c13.9,13.9,15.6,12.1,19,8.7L497.1,70.4z"/>
	<path class="st3" d="M458.8,20.8c-3.6,3.6-5.7,5.7-5.7,5.7l-16.2-16.2c0,0,2.6-2.6,5.7-5.7c0.2-0.2,1.1-0.1,2,0.8
		c2.8,2.8,10.4,10.1,13.8,13.5C459.9,20.4,459.1,20.5,458.8,20.8z"/>
	<path class="st3" d="M502.7,64.7c-3.6,3.6-5.7,5.7-5.7,5.7l-16.2-16.2c0,0,2.6-2.6,5.7-5.7c0.2-0.2,1.1-0.1,2,0.8
		c2.8,2.8,10.4,10.1,13.8,13.5C503.8,64.4,503,64.4,502.7,64.7z"/>
</g>
<g>
	<rect x="519.1" y="4.3" class="st4" width="84.7" height="78.4"/>
	<line class="st4" x1="519.1" y1="22.7" x2="603.9" y2="22.7"/>
	<rect x="528.6" y="34.1" style="fill:none;" width="66.3" height="40.8"/>
	<text transform="matrix(1 0 0 1 532.5513 70.7313)" class="st5" style="font-family:'Muli'; font-size:50.206px;">21</text>
</g>
<g>
	<rect x="2177.1" y="2.9" class="st4" width="84.7" height="78.4"/>
	<g>
		<g>
			<path class="st1" d="M2220.2,56V42.8c7.2,0,13.1-5.9,13.1-13.1c0-7.2-5.9-13.1-13.1-13.1c-7.2,0-13.1,5.9-13.1,13.1"/>
		</g>
		<path class="st1" d="M2223.4,65.5c0-1.8-1.4-3.2-3.2-3.2c-1.8,0-3.2,1.4-3.2,3.2c0,1.8,1.4,3.2,3.2,3.2
			C2221.9,68.6,2223.4,67.2,2223.4,65.5z"/>
	</g>
</g>
<g>
	<rect x="514.7" y="102.2" class="st5" width="34.4" height="31.9"/>
	<rect x="514.8" y="102.3" class="st4" width="34.3" height="31.7"/>
	<line class="st6" x1="514.8" y1="109.7" x2="549.1" y2="109.7"/>
	<rect x="518.6" y="114.4" style="fill:none;" width="26.8" height="16.5"/>
	<text transform="matrix(1 0 0 1 520.2655 129.1715)" style="fill:#FFFFFF; font-family:'Muli'; font-size:20.3038px;">21</text>
</g>
<g>
	<line class="st1" x1="617" y1="85.7" x2="704" y2="85.7"/>
	<rect x="620.3" y="26.2" class="st1" width="80.4" height="8"/>
	<rect x="624.3" y="18.2" class="st1" width="72.4" height="8"/>
	<rect x="628.8" y="2.2" class="st1" width="63.5" height="16"/>
	<g>
		<rect x="623.6" y="34.2" class="st1" width="73.7" height="51.5"/>
		<rect x="631.6" y="40.6" class="st1" width="10.2" height="14.7"/>
		<rect x="679.7" y="40.6" class="st1" width="10.2" height="14.7"/>
		<rect x="631.6" y="63.2" class="st1" width="10.2" height="14.7"/>
		<rect x="679.7" y="63.2" class="st1" width="10.2" height="14.7"/>
		<path class="st1" d="M671.2,85.7h-20.9V55.1c0-4,3.2-7.2,7.2-7.2h6.6c4,0,7.2,3.2,7.2,7.2V85.7z"/>
	</g>
	<text transform="matrix(1 0 0 1 635.2211 14.2404)" style="font-family:'Avenir-Roman'; font-size:12.1827px;">SCHOOL</text>
</g>
<g>
	<rect x="811.7" y="65.4" class="st0" width="50" height="13.7"/>
	<polygon class="st0" points="858.3,65.6 815.1,65.6 815.1,44.4 792.7,43.6 792.7,34 815.1,34 815.1,3.4 858.3,3.4 	"/>
	<line class="st0" x1="825.2" y1="4.1" x2="825.4" y2="23.2"/>
	<line class="st0" x1="836.7" y1="4.1" x2="836.7" y2="23"/>
	<line class="st0" x1="847.9" y1="4.1" x2="847.9" y2="23"/>
</g>
<g>
	<rect x="716.7" y="65.4" class="st0" width="50" height="13.7"/>
	<polygon class="st0" points="720.1,65.6 763.3,65.6 763.3,44.4 785.7,43.6 785.7,34 763.3,34 763.3,3.4 720.1,3.4 	"/>
	<line class="st0" x1="753.2" y1="4.1" x2="753" y2="23.2"/>
	<line class="st0" x1="741.7" y1="4.1" x2="741.7" y2="23"/>
	<line class="st0" x1="730.5" y1="4.1" x2="730.5" y2="23"/>
</g>
<g>
	<path class="st0" d="M896.3,1.8h35c4.5,0,7.7,4.3,6.5,8.6l-20.6,70c-0.8,2.9-3.5,4.8-6.5,4.8h-35c-4.5,0-7.7-4.3-6.5-8.6l20.6-70
		C890.7,3.8,893.3,1.8,896.3,1.8z"/>
	<path class="st7" d="M874.5,58.8h49l-6.3,21.5c-0.8,2.9-3.5,4.8-6.5,4.8h-35c-4.5,0-7.7-4.3-6.5-8.6L874.5,58.8z"/>
	<line class="st0" x1="874.5" y1="58.8" x2="923.5" y2="58.8"/>
</g>
<g>
	<rect x="955.5" y="1.1" class="st8" width="61.5" height="85"/>
	<rect x="963.9" y="10.8" class="st8" width="14.5" height="17.5"/>
	<rect x="992.9" y="10.8" class="st8" width="14.5" height="17.5"/>
	<rect x="963.9" y="36.1" class="st8" width="14.5" height="17.5"/>
	<rect x="992.9" y="36.1" class="st8" width="14.5" height="17.5"/>
	<rect x="978.4" y="62" class="st8" width="14.5" height="24.1"/>
	<g>
		<line class="st9" x1="941" y1="9.6" x2="944.5" y2="13.1"/>
		<line class="st9" x1="938" y1="20.4" x2="942.8" y2="20.4"/>
		<line class="st9" x1="941" y1="30.3" x2="944.5" y2="26.9"/>
	</g>
	<line class="st10" x1="971.2" y1="27" x2="971.2" y2="19.8"/>
	<path class="st10" d="M975,19.8c0-2.1-1.7-3.9-3.9-3.9s-3.9,1.7-3.9,3.9H975z"/>
	<line class="st10" x1="967.9" y1="21" x2="967.9" y2="23.4"/>
	<circle cx="968.2" cy="23.4" r="0.9"/>
</g>
<g>
	<polyline class="st1" points="1078.4,55.4 1071.3,65.2 1066.3,65.2 1059.3,55 	"/>
	<path class="st1" d="M1070.9,70.6c0,1.2-1,2.2-2.3,2.2c-1.2,0-2.2-1-2.2-2.2c0-1.2,1-2.3,2.2-2.3
		C1069.9,68.4,1070.9,69.4,1070.9,70.6z"/>
	<g>
		<path class="st1" d="M1086.9,55c-7.5,0-29,0-37.3,0c-9,0-17.5,15.6-17.5,29.9c14.3,0,61.2,0,72.3,0C1104.4,69,1095.8,55,1086.9,55
			z"/>
		<circle class="st1" cx="1067.4" cy="23.4" r="21.4"/>
		<g>
			<defs>
				<circle id="SVGID_3_" cx="1067.4" cy="23.4" r="21.4"/>
			</defs>
			<clipPath id="SVGID_4_">
				<use xlink:href="#SVGID_3_"  style="overflow:visible;"/>
			</clipPath>
			<path class="st11" d="M1056.5-17.4c-11.6,0-21.1,9.4-21.1,21.1c0,11.6,9.4,21.1,21.1,21.1c5.9,0,11.2-2.4,15-6.3
				c0.9,5.9,6,10.5,12.2,10.5c6.8,0,12.3-5.5,12.3-12.3c0-6.8-5.5-12.3-12.3-12.3"/>
		</g>
	</g>
	<polyline class="st1" points="1086.4,55.9 1086.4,71.5 1070.9,64.9 	"/>
	<polyline class="st1" points="1051.3,55.9 1051.3,71.5 1066.9,64.9 	"/>
</g>
<g>
	<path class="st1" d="M1137.2,55c0,3.8,4.7,6.9,10.5,6.9c5.8,0,10.5-3.1,10.5-6.9"/>
	<g>
		<path class="st1" d="M1166.5,55.2c-7.5,0-28.7,0-36.9,0c-8.9,0-17.3,15.5-17.3,29.7c14.2,0,60.6,0,71.6,0
			C1183.8,69.2,1175.4,55.2,1166.5,55.2z"/>
		<circle class="st1" cx="1147.2" cy="23.9" r="21.3"/>
		<g>
			<defs>
				<circle id="SVGID_5_" cx="1147.2" cy="23.9" r="21.3"/>
			</defs>
			<clipPath id="SVGID_6_">
				<use xlink:href="#SVGID_5_"  style="overflow:visible;"/>
			</clipPath>
			<path class="st12" d="M1136.4-16.5c-11.5,0-20.9,9.4-20.9,20.9c0,11.5,9.4,20.9,20.9,20.9c5.8,0,11.1-2.4,14.9-6.3
				c0.9,5.9,5.9,10.4,12.1,10.4c6.7,0,12.2-5.5,12.2-12.2c0-6.7-5.5-12.2-12.2-12.2"/>
		</g>
	</g>
	<path class="st1" d="M1167.6,31.1c0,5.2,4.2,9.4,9.4,9.4"/>
	<path class="st1" d="M1117.6,40.6c5.2,0,9.4-4.2,9.4-9.4"/>
	<path class="st1" d="M1118.2,40.4c4.6,6.9,14,8.8,21,4.2"/>
	<path class="st1" d="M1176.5,40.4c-4.6,6.9-14,8.8-21,4.2"/>
	<line class="st1" x1="1148.4" y1="62.5" x2="1148.4" y2="84.9"/>
</g>
<g>
	<path class="st0" d="M1236,85"/>
	<path class="st0" d="M1207.7,56.6"/>
	<line class="st0" x1="1253.8" y1="10.5" x2="1282.2" y2="38.9"/>
	<line class="st0" x1="1247.9" y1="16.4" x2="1276.3" y2="44.8"/>
	<path class="st0" d="M1207.7,56.6V85h28.4l51.4-51.4c0,0,9.4-11.1-4-24.4c-13.4-13.4-24.4-4-24.4-4L1207.7,56.6z"/>
	<polyline class="st0" points="1207.1,57.2 1221.7,57.2 1221.7,71 1235.5,71 1235.5,85.5 	"/>
	<line class="st0" x1="1269" y1="37.5" x2="1235.5" y2="71"/>
	<line class="st0" x1="1255.2" y1="23.7" x2="1221.7" y2="57.2"/>
	<rect x="1207.6" y="77.2" class="st5" width="7.5" height="7.5"/>
</g>
<g>
	<polygon class="st0" points="1341.8,0.9 1303.8,38.9 1307.8,38.9 1307.8,86.1 1376.6,86.1 1376.6,37.8 1381.2,37.8 	"/>
	<circle class="st0" cx="1342.5" cy="29.3" r="10.2"/>
	<path class="st0" d="M1354.9,85.9h-24.8V53.6c0-0.9,0.8-1.7,1.7-1.7h21.4c0.9,0,1.7,0.8,1.7,1.7V85.9z"/>
</g>
<g>
	<g>
		<rect x="1433.7" y="30.8" class="st1" width="43.3" height="54.9"/>
		<polygon class="st1" points="1433.7,85.7 1413.8,85.7 1413.8,39.6 1433.7,22.3 		"/>
		<polygon class="st1" points="1413.8,85.7 1394,85.7 1394,39.6 1413.8,22.3 		"/>
		<rect x="1459.7" y="37.6" class="st1" width="11" height="20.8"/>
		<rect x="1440.8" y="37.6" class="st1" width="11" height="20.8"/>
		<rect x="1419.7" y="49.3" class="st1" width="9" height="20.8"/>
		<path class="st1" d="M1428.7,26.4l-9,8.3V15.3c0-0.8,0.6-1.4,1.4-1.4h6.1c0.8,0,1.4,0.6,1.4,1.4V26.4z"/>
		<path class="st1" d="M1408.4,26.4l-9,8.3V15.3c0-0.8,0.6-1.4,1.4-1.4h6.1c0.8,0,1.4,0.6,1.4,1.4V26.4z"/>
		<rect x="1398.4" y="49.3" class="st1" width="9" height="20.8"/>
		<path class="st1" d="M1451.8,30.8h-10.4V19.5c0-0.6,0.5-1,1-1h8.3c0.6,0,1,0.5,1,1V30.8z"/>
		<path class="st1" d="M1470.8,30.8h-10.4V19.5c0-0.6,0.5-1,1-1h8.3c0.6,0,1,0.5,1,1V30.8z"/>
		<rect x="1443.5" y="66.8" class="st1" width="24.5" height="19"/>
		<path class="st1" d="M1401.9,10.5c0.3-3.8,1.6-5.2,2.6-5.8c2.2-1.2,4.7,0.5,7.3-1c1.3-0.8,1.9-2,2.3-2.8"/>
		<path class="st1" d="M1423.8,10.5c0.3-3.8,1.6-5.2,2.6-5.8c2.2-1.2,4.7,0.5,7.3-1c1.3-0.8,1.9-2,2.3-2.8"/>
		<path class="st1" d="M1445.7,15.4c0.3-3.8,1.6-5.2,2.6-5.8c2.2-1.2,4.7,0.5,7.3-1c1.3-0.8,1.9-2,2.3-2.8"/>
		<path class="st1" d="M1464.7,15.4c0.3-3.8,1.6-5.2,2.6-5.8c2.2-1.2,4.7,0.5,7.3-1c1.3-0.8,1.9-2,2.3-2.8"/>
	</g>
</g>
<g>
	<g>
		<path class="st13" d="M1509.3,55.2v27.3c0,1.6,1.3,3,3,3h36.3c1.6,0,3-1.4,3-3V56.2"/>
	</g>
	<polygon class="st14" points="1572,44.6 1531.1,68.1 1489.5,43.4 1530.5,21.4 	"/>
	<line class="st15" x1="1564.3" y1="49.2" x2="1564.3" y2="66.6"/>
</g>
<g>
	<circle class="st0" cx="1602.5" cy="35.4" r="5.1"/>
	<circle class="st0" cx="1619.5" cy="35.4" r="5.1"/>
	<circle class="st0" cx="1636.5" cy="35.4" r="5.1"/>
	<path class="st0" d="M1654.8,37.3c0-19.5-15.8-35.3-35.3-35.3c-19.5,0-35.3,15.8-35.3,35.3c0,19.5,15.8,35.3,35.3,35.3
		c2.8,0,7.6-0.7,7.6-0.7L1641,85l-2.1-18.2C1648.5,60.5,1654.8,49.7,1654.8,37.3z"/>
</g>
<g>
	<g>
		<defs>
			<rect id="SVGID_7_" x="1670.6" y="30.5" width="79.3" height="34.5"/>
		</defs>
		<clipPath id="SVGID_8_">
			<use xlink:href="#SVGID_7_"  style="overflow:visible;"/>
		</clipPath>
		<g style="clip-path:url(#SVGID_8_);">
			<text transform="matrix(1 0 0 1 1726.2474 41.152)" style="font-family:'Folio-Light'; font-size:29.2656px;">5</text>
		</g>
		<g style="clip-path:url(#SVGID_8_);">
			<text transform="matrix(1 0 0 1 1725.7699 67.5016)" style="font-family:'Folio-Light'; font-size:29.2656px;">6</text>
		</g>
	</g>
	<g>
		<path class="st16" d="M1748.3,30.5h-77.7c-2.1,0-3.7-1.7-3.7-3.7v-0.3c0-2.1,1.7-3.7,3.7-3.7h77.7c2.1,0,3.7,1.7,3.7,3.7v0.3
			C1752.1,28.8,1750.4,30.5,1748.3,30.5z"/>
	</g>
	<g>
		<path class="st16" d="M1748.3,85.6h-77.7c-2.1,0-3.7-1.7-3.7-3.7v-0.3c0-2.1,1.7-3.7,3.7-3.7h77.7c2.1,0,3.7,1.7,3.7,3.7v0.3
			C1752.1,83.9,1750.4,85.6,1748.3,85.6z"/>
	</g>
	<path class="st16" d="M1689.5,22.8h-7.9v-3.8c0-0.8,0.7-1.5,1.5-1.5h4.8c0.8,0,1.5,0.7,1.5,1.5V22.8z"/>
	<rect x="1670.6" y="30.5" class="st16" width="79.3" height="47.4"/>
	<line class="st16" x1="1674.6" y1="64.9" x2="1682.8" y2="64.9"/>
	<line class="st16" x1="1685.3" y1="64.9" x2="1749.9" y2="64.9"/>
	<line class="st16" x1="1675.9" y1="69.1" x2="1675.9" y2="74.6"/>
	<line class="st16" x1="1682.7" y1="69.1" x2="1682.7" y2="74.6"/>
	<line class="st16" x1="1689.6" y1="69.1" x2="1689.6" y2="74.6"/>
	<line class="st16" x1="1696.5" y1="69.1" x2="1696.5" y2="74.6"/>
	<line class="st16" x1="1703.4" y1="69.1" x2="1703.4" y2="74.6"/>
	<line class="st16" x1="1710.3" y1="69.1" x2="1710.3" y2="74.6"/>
	<line class="st16" x1="1717.1" y1="69.1" x2="1717.1" y2="74.6"/>
	<line class="st16" x1="1724" y1="69.1" x2="1724" y2="74.6"/>
	<line class="st16" x1="1730.9" y1="69.1" x2="1730.9" y2="74.6"/>
	<line class="st16" x1="1737.8" y1="69.1" x2="1737.8" y2="74.6"/>
	<line class="st16" x1="1744.7" y1="69.1" x2="1744.7" y2="74.6"/>
	<text transform="matrix(1 0 0 1 1678.1786 57.2477)" style="font-family:'Folio-Light'; font-size:29.2656px;">0</text>
	<text transform="matrix(1 0 0 1 1703.3817 57.2477)" style="font-family:'Folio-Light'; font-size:29.2656px;">1</text>
</g>
<g>
	<g>
		<path class="st0" d="M1832.9,11.8c1.2,0,2.5,0.1,3.8,0.2c8.3,0.7,17.8,7.7,19,20.9c0,0,0,0.1,0,0.1v4.4
			c-1.1,12.6-11.4,18.5-41.6,47.5c-0.4,0.3-0.9,0.3-1.3,0c-30.1-29-40.5-34.9-41.6-47.5V33c0,0,0-0.1,0-0.1
			c1.2-13.3,10.7-20.2,19-20.9c1.4-0.1,2.6-0.2,3.8-0.2c9.6,0,14.1,3.8,19.4,9.5C1818.7,15.6,1823.3,11.8,1832.9,11.8"/>
	</g>
	<line class="st0" x1="1814.2" y1="20.6" x2="1808.2" y2="26.6"/>
	<polyline class="st0" points="1796.6,43.1 1809.5,56.1 1834.9,30.7 	"/>
</g>
<g>
	<line class="st17" x1="1875.2" y1="10.1" x2="1959.8" y2="10.1"/>
	<line class="st1" x1="1882.8" y1="11.8" x2="1900.8" y2="85.8"/>
	<line class="st1" x1="1954" y1="11.8" x2="1935.9" y2="85.8"/>
	<line class="st1" x1="1942.3" y1="11.8" x2="1924.2" y2="85.8"/>
	<line class="st1" x1="1930.4" y1="11.8" x2="1912.4" y2="85.8"/>
	<line class="st1" x1="1919" y1="11.8" x2="1900.9" y2="85.8"/>
	<line class="st1" x1="1907.4" y1="11.8" x2="1895.1" y2="62.2"/>
	<line class="st1" x1="1895.8" y1="11.8" x2="1889.3" y2="38.4"/>
	<line class="st1" x1="1894.5" y1="11.8" x2="1912.5" y2="85.8"/>
	<line class="st1" x1="1906.2" y1="11.8" x2="1924.3" y2="85.8"/>
	<line class="st1" x1="1917.9" y1="11.8" x2="1936" y2="85.8"/>
	<line class="st1" x1="1929.6" y1="11.8" x2="1941.5" y2="60.5"/>
	<line class="st1" x1="1941.3" y1="11.8" x2="1947.3" y2="36.1"/>
	<path class="st5" d="M1954.8,15.1h-3.2c-0.9,0-1.7-0.7-1.7-1.7v-3.3h6.5v3.3C1956.5,14.3,1955.7,15.1,1954.8,15.1z"/>
	<path class="st5" d="M1943.7,15.1h-3.2c-0.9,0-1.7-0.7-1.7-1.7v-3.3h6.5v3.3C1945.3,14.3,1944.6,15.1,1943.7,15.1z"/>
	<path class="st5" d="M1931.8,15.1h-3.2c-0.9,0-1.7-0.7-1.7-1.7v-3.3h6.5v3.3C1933.5,14.3,1932.8,15.1,1931.8,15.1z"/>
	<path class="st5" d="M1920.4,15.1h-3.2c-0.9,0-1.7-0.7-1.7-1.7v-3.3h6.5v3.3C1922.1,14.3,1921.3,15.1,1920.4,15.1z"/>
	<path class="st5" d="M1908,15.1h-3.2c-0.9,0-1.7-0.7-1.7-1.7v-3.3h6.5v3.3C1909.7,14.3,1908.9,15.1,1908,15.1z"/>
	<path class="st5" d="M1896.7,15.1h-3.2c-0.9,0-1.7-0.7-1.7-1.7v-3.3h6.5v3.3C1898.4,14.3,1897.6,15.1,1896.7,15.1z"/>
	<path class="st5" d="M1884.6,15.1h-3.2c-0.9,0-1.7-0.7-1.7-1.7v-3.3h6.5v3.3C1886.3,14.3,1885.5,15.1,1884.6,15.1z"/>
</g>
<g>
	<polygon class="st18" points="2019.5,83 1979.6,66.5 1979.6,40.9 2019.5,57.4 	"/>
	<polygon class="st18" points="2019.5,83 2059.4,66.5 2059.4,40.9 2019.5,57.4 	"/>
	<line class="st18" x1="2028.1" y1="28.4" x2="2034.7" y2="31.1"/>
	<line class="st18" x1="2005.3" y1="30.7" x2="2010.9" y2="28.4"/>
	<polyline class="st18" points="2051.3,37.7 2059.4,40.9 2019.5,57.4 1979.6,40.9 1988.9,37.2 	"/>
	<ellipse class="st1" cx="2019.5" cy="25.5" rx="10.1" ry="5.5"/>
	<ellipse class="st1" cx="2019.5" cy="43.6" rx="10.1" ry="5.5"/>
	<ellipse class="st1" cx="1997.4" cy="34.2" rx="10.1" ry="5.5"/>
	<ellipse class="st1" cx="2043.4" cy="34.2" rx="10.1" ry="5.5"/>
</g>
<g>
	<path class="st0" d="M2134,84.5h-48c-4,0-7.2-3.2-7.2-7.2v-33c0-4,3.2-7.2,7.2-7.2h48c4,0,7.2,3.2,7.2,7.2v33
		C2141.2,81.2,2138,84.5,2134,84.5z"/>
	<circle class="st0" cx="2119.5" cy="22.4" r="13.8"/>
	<circle class="st0" cx="2095.4" cy="27.1" r="9.5"/>
	<path class="st0" d="M2141.4,73.9l15.4,7.5c0.7,0.3,1.4-0.2,1.4-0.9V41c0-0.7-0.8-1.2-1.4-0.9l-15.4,7.5"/>
	<path class="st0" d="M2140.9,73"/>
</g>
<g>
	<ellipse class="st19" cx="2321" cy="52.4" rx="6.9" ry="9.1"/>
	<g>
		<g>
			<line class="st20" x1="2313.4" y1="23.8" x2="2305.8" y2="31.7"/>
			<line class="st20" x1="2313.6" y1="31.6" x2="2305.7" y2="24"/>
		</g>
		<g>
			<line class="st20" x1="2336.2" y1="23.8" x2="2328.6" y2="31.7"/>
			<line class="st20" x1="2336.3" y1="31.6" x2="2328.4" y2="24"/>
		</g>
	</g>
	<path class="st19" d="M2344.2,31.7c0-16.6-12.9-30-28.8-30l0,0c-15.9,0-28.8,13.4-28.8,30V73c0,0.2,0,0.5,0,0.7c0,4.3-2.3,8-5.8,10
		c1.7,1,3.7,1.6,5.8,1.6c2.1,0,4.1-0.6,5.7-1.5c1.7,1,3.6,1.5,5.7,1.5c2.1,0,4.1-0.6,5.7-1.5c1.7,1,3.6,1.5,5.7,1.5
		c2.1,0,4.1-0.6,5.7-1.5c1.7,1,3.6,1.5,5.7,1.5c2.1,0,4.1-0.6,5.7-1.5c1.7,1,3.6,1.5,5.7,1.5c6.4,0,11.6-5.2,11.6-11.6h0V31.7z"/>
</g>
<g>
	<g>
		<g>
			<path class="st0" d="M2398.1,28.9v-5.7h-14.9v5.7c-11.8,3.3-20.5,14.1-20.5,26.9c0,15.4,12.5,27.9,27.9,27.9
				c15.4,0,27.9-12.5,27.9-27.9C2418.6,43,2409.9,32.2,2398.1,28.9z"/>
		</g>
	</g>
	<path class="st0" d="M2419.8,22.6c0,4-3.2,7.2-7.2,7.2s-7.2-3.2-7.2-7.2l0-0.2c0-4-3.2-7.2-7.2-7.2c-4,0-7.2,3.2-7.2,7.2"/>
	<path class="st0" d="M2419.8,22.6c0-5.5,4.4-9.9,9.9-9.9"/>
	<polygon points="2424.6,9.4 2429.8,5.2 2427.2,11.4 2433.8,10.3 2428.5,14.3 2434.7,16.7 2428.1,17.5 2432.3,22.7 2426.2,20.1 
		2427.2,26.7 2423.2,21.4 2420.8,27.6 2420,21 2414.8,25.2 2417.4,19.1 2410.8,20.1 2416.1,16.1 2409.9,13.7 2416.5,12.9 
		2412.3,7.7 2418.4,10.3 2417.4,3.7 2421.4,9 2423.8,2.8 	"/>
	<path class="st0" d="M2369.5,49.4"/>
	<g>
		<path class="st0" d="M2369.5,49.4c0.9-3.1,2.5-5.9,4.7-8.3"/>
		<path class="st0" d="M2390.7,77.9c-12.2,0-22.1-9.9-22.1-22.1"/>
	</g>
</g>
<g>
	<polyline class="st21" points="50.8,29.6 71.1,29.6 71.1,84.1 15.9,84.1 15.9,46.6 15.9,29.6 36.6,29.6 	"/>
	<g>
		<g>
			<line class="st21" x1="42.9" y1="1.1" x2="42.9" y2="51.6"/>
			<polyline class="st21" points="29.9,39.1 43,52.3 56.2,39.1 			"/>
		</g>
	</g>
</g>
</svg>
