<?xml version="1.0" encoding="utf-8"?>
<!-- Generator: Adobe Illustrator 22.1.0, SVG Export Plug-In . SVG Version: 6.00 Build 0)  -->
<svg version="1.1" id="Layer_1" xmlns="http://www.w3.org/2000/svg" xmlns:xlink="http://www.w3.org/1999/xlink" x="0px" y="0px"
	 viewBox="0 0 87 87" style="enable-background:new 0 0 87 87;" xml:space="preserve">
<style type="text/css">
	.st0{fill:none;stroke:#000000;stroke-linecap:round;stroke-linejoin:round;stroke-miterlimit:10;}
</style>
<g>
	<path class="st0" d="M42.9,20.1L7.4,81.5C7.1,82,7.5,82.6,8,82.6h70.9c0.6,0,0.9-0.6,0.6-1.1L44,20.1
		C43.9,19.6,43.2,19.6,42.9,20.1z"/>
	<path class="st0" d="M42.9,32.7L18.4,75.2c-0.3,0.5,0.1,1.1,0.6,1.1h49.1c0.6,0,0.9-0.6,0.6-1.1L44.2,32.7
		C43.9,32.2,43.2,32.2,42.9,32.7z"/>
	<g>
		<path d="M44.5,65h-2c-0.2,0-0.3-0.1-0.3-0.3V45.3c0-0.2,0.1-0.3,0.3-0.3h2c0.2,0,0.3,0.1,0.3,0.3v19.4C44.8,64.9,44.7,65,44.5,65z
			"/>
		<circle cx="43.5" cy="68.8" r="2.2"/>
	</g>
</g>
</svg>
