<?xml version="1.0" encoding="utf-8"?>
<!-- Generator: Adobe Illustrator 22.1.0, SVG Export Plug-In . SVG Version: 6.00 Build 0)  -->
<svg version="1.1" id="Layer_1" xmlns="http://www.w3.org/2000/svg" xmlns:xlink="http://www.w3.org/1999/xlink" x="0px" y="0px"
	 viewBox="0 0 35.3 33.6" style="enable-background:new 0 0 35.3 33.6;" xml:space="preserve">
<style type="text/css">
	.st0{fill:none;stroke:#000000;stroke-linecap:round;stroke-linejoin:round;stroke-miterlimit:10;}
	.st1{fill:none;stroke:#231F20;stroke-miterlimit:10;}
	.st2{clip-path:url(#SVGID_2_);fill:none;stroke:#231F20;stroke-linecap:round;stroke-linejoin:round;stroke-miterlimit:10;}
	.st3{fill:none;stroke:#000000;stroke-width:0.9889;stroke-miterlimit:10;}
	.st4{fill:none;stroke:#231F20;stroke-linejoin:round;stroke-miterlimit:10;}
	.st5{fill:#231F20;}
	.st6{fill:none;stroke:#FFFFFF;stroke-width:2;stroke-linejoin:round;stroke-miterlimit:10;}
	.st7{fill:none;}
	.st8{fill:#FFFFFF;}
	.st9{font-family:'Muli';}
	.st10{font-size:20.3038px;}
	.st11{fill:#E6E6E6;stroke:#000000;stroke-linecap:round;stroke-linejoin:round;stroke-miterlimit:10;}
	.st12{fill:none;stroke:#000000;stroke-linejoin:round;stroke-miterlimit:10;}
	.st13{fill:none;stroke:#000000;stroke-linecap:round;stroke-miterlimit:10;}
	.st14{fill:none;stroke:#000000;stroke-miterlimit:10;}
	.st15{clip-path:url(#SVGID_4_);fill:none;stroke:#231F20;stroke-miterlimit:10;}
	.st16{clip-path:url(#SVGID_6_);fill:none;stroke:#231F20;stroke-miterlimit:10;}
	.st17{fill:none;stroke:#231F20;stroke-width:2.0006;stroke-linejoin:round;stroke-miterlimit:10;}
	.st18{fill:none;stroke:#231F20;stroke-width:2.1821;stroke-linejoin:round;stroke-miterlimit:10;}
	.st19{fill:none;stroke:#231F20;stroke-width:2;stroke-linejoin:round;stroke-miterlimit:10;}
	.st20{fill:none;stroke:#000000;stroke-width:0.7874;stroke-linejoin:round;stroke-miterlimit:10;}
	.st21{fill:none;stroke:#231F20;stroke-width:2;stroke-miterlimit:10;}
	.st22{fill:none;stroke:#231F20;stroke-miterlimit:1;}
	.st23{fill:none;stroke:#231F20;stroke-width:0.7874;stroke-linejoin:round;stroke-miterlimit:10;}
	.st24{fill:none;stroke:#000000;stroke-width:0.5;stroke-linecap:round;stroke-linejoin:round;stroke-miterlimit:10;}
</style>
<g>
	<g>
		<ellipse transform="matrix(0.9732 -0.2298 0.2298 0.9732 2.9007 58.8478)" class="st0" cx="254.2" cy="17" rx="42.2" ry="42.2"/>
	</g>
	<g>
		<path class="st0" d="M228.8,20.8c0,14.1,11.4,25.5,25.5,25.5c14.1,0,25.5-11.4,25.5-25.5H228.8z"/>
	</g>
	<path class="st0" d="M228.6,2.1c5.7-5.7,14.8-5.7,20.5,0"/>
	<path class="st0" d="M257.9,2.1c5.7-5.7,14.8-5.7,20.5,0"/>
</g>
<g>
	<path class="st1" d="M383.6,58.4h-67c-0.6,0-1-0.5-1-1V19c0-5.7,4.6-10.3,10.3-10.3h48.4c5.7,0,10.3,4.6,10.3,10.3v38.4
		C384.7,58,384.2,58.4,383.6,58.4z"/>
	<rect x="346.1" y="2.6" class="st1" width="7.2" height="6"/>
	<path class="st1" d="M357.5-9.2c0-4.3-6.2-14.6-7.8-14.6c-1.6,0-7.8,10.3-7.8,14.6s3.5,7.8,7.8,7.8S357.5-4.9,357.5-9.2z"/>
	<g>
		<defs>
			<path id="SVGID_1_" d="M383.6,58.4h-67c-0.6,0-1-0.5-1-1V18.9c0-5.7,4.6-10.3,10.3-10.3h48.4c5.7,0,10.3,4.6,10.3,10.3v38.4
				C384.7,57.9,384.2,58.4,383.6,58.4z"/>
		</defs>
		<clipPath id="SVGID_2_">
			<use xlink:href="#SVGID_1_"  style="overflow:visible;"/>
		</clipPath>
		<path class="st2" d="M308.8,27.7c0,0,1.5,11.1,14.1,11.1s13.3-10.3,13.3-10.3s2.1,10.6,13.6,10.6s13.2-10.1,13.2-10.1
			s2.5,10.1,13.2,10.1c10.6,0,13.1-10.1,13.1-10.1"/>
	</g>
</g>
<g>
	<path class="st3" d="M470.7,43.6c-8.2,8.2-13.7,13.3-29.6,1.7c-8.2-6-25.8-24.1-32.3-32.3c-11.7-14.6-8.1-19.7,1.7-29.6l16.2,16.2
		c-3.2,3.2-5.1,5.2,8.7,19c13.9,13.9,15.6,12.1,19,8.7L470.7,43.6z"/>
	<path class="st3" d="M432.4-6c-3.6,3.6-5.7,5.7-5.7,5.7l-16.2-16.2c0,0,2.6-2.6,5.7-5.7c0.2-0.2,1.1-0.1,2,0.8
		c2.8,2.8,10.4,10.1,13.8,13.5C433.6-6.4,432.8-6.3,432.4-6z"/>
	<path class="st3" d="M476.4,37.9c-3.6,3.6-5.7,5.7-5.7,5.7l-16.2-16.2c0,0,2.6-2.6,5.7-5.7c0.2-0.2,1.1-0.1,2,0.8
		c2.8,2.8,10.4,10.1,13.8,13.5C477.5,37.6,476.7,37.6,476.4,37.9z"/>
</g>
<g>
	<rect x="492.8" y="-22.5" class="st4" width="84.7" height="78.4"/>
	<line class="st4" x1="492.8" y1="-4.1" x2="577.5" y2="-4.1"/>
	<rect x="502.2" y="7.3" class="st7" width="66.3" height="40.8"/>
	<text transform="matrix(1 0 0 1 506.2104 43.9347)" class="st5 st9" style="font-size:50.206px;">21</text>
</g>
<g>
	<rect x="2150.8" y="-23.9" class="st4" width="84.7" height="78.4"/>
	<g>
		<g>
			<path class="st1" d="M2193.9,29.2l0-13.2c7.2,0,13.1-5.9,13.1-13.1c0-7.2-5.9-13.1-13.1-13.1c-7.2,0-13.1,5.9-13.1,13.1"/>
		</g>
		<path class="st1" d="M2197,38.7c0-1.8-1.4-3.2-3.2-3.2c-1.8,0-3.2,1.4-3.2,3.2c0,1.8,1.4,3.2,3.2,3.2
			C2195.6,41.8,2197,40.4,2197,38.7z"/>
	</g>
</g>
<g>
	<rect x="0.3" y="0.4" class="st5" width="34.4" height="31.9"/>
	<rect x="0.5" y="0.5" class="st4" width="34.3" height="31.7"/>
	<line class="st6" x1="0.5" y1="7.9" x2="34.8" y2="7.9"/>
	<rect x="4.3" y="12.6" class="st7" width="26.8" height="16.5"/>
	<text transform="matrix(1 0 0 1 5.9246 27.3749)" class="st8 st9 st10">21</text>
</g>
<g>
	<line class="st1" x1="590.6" y1="58.9" x2="677.7" y2="58.9"/>
	<rect x="594" y="-0.6" class="st1" width="80.4" height="8"/>
	<rect x="598" y="-8.6" class="st1" width="72.4" height="8"/>
	<rect x="602.4" y="-24.6" class="st1" width="63.5" height="16"/>
	<g>
		<rect x="597.3" y="7.4" class="st1" width="73.7" height="51.5"/>
		<rect x="605.3" y="13.8" class="st1" width="10.2" height="14.7"/>
		<rect x="653.3" y="13.8" class="st1" width="10.2" height="14.7"/>
		<rect x="605.3" y="36.4" class="st1" width="10.2" height="14.7"/>
		<rect x="653.3" y="36.4" class="st1" width="10.2" height="14.7"/>
		<path class="st1" d="M644.9,58.9h-20.9V28.4c0-4,3.2-7.2,7.2-7.2h6.6c4,0,7.2,3.2,7.2,7.2V58.9z"/>
	</g>
	<text transform="matrix(1 0 0 1 608.8802 -12.5562)" style="font-family:'Avenir-Roman'; font-size:12.1827px;">SCHOOL</text>
</g>
<g>
	<rect x="785.3" y="38.6" class="st0" width="50" height="13.7"/>
	<polygon class="st0" points="831.9,38.8 788.7,38.8 788.7,17.6 766.4,16.8 766.4,7.2 788.7,7.2 788.7,-23.4 831.9,-23.4 	"/>
	<line class="st0" x1="798.9" y1="-22.7" x2="799.1" y2="-3.6"/>
	<line class="st0" x1="810.3" y1="-22.7" x2="810.3" y2="-3.8"/>
	<line class="st0" x1="821.6" y1="-22.7" x2="821.6" y2="-3.8"/>
</g>
<g>
	<rect x="690.4" y="38.6" class="st0" width="50" height="13.7"/>
	<polygon class="st0" points="693.8,38.8 737,38.8 737,17.6 759.4,16.8 759.4,7.2 737,7.2 737,-23.4 693.8,-23.4 	"/>
	<line class="st0" x1="726.8" y1="-22.7" x2="726.6" y2="-3.6"/>
	<line class="st0" x1="715.4" y1="-22.7" x2="715.4" y2="-3.8"/>
	<line class="st0" x1="704.1" y1="-22.7" x2="704.1" y2="-3.8"/>
</g>
<g>
	<path class="st0" d="M869.9-25h35c4.5,0,7.7,4.3,6.5,8.6l-20.6,70c-0.8,2.9-3.5,4.8-6.5,4.8h-35c-4.5,0-7.7-4.3-6.5-8.6l20.6-70
		C864.3-23,867-25,869.9-25z"/>
	<path class="st11" d="M848.1,32h49l-6.3,21.5c-0.8,2.9-3.5,4.8-6.5,4.8h-35c-4.5,0-7.7-4.3-6.5-8.6L848.1,32z"/>
	<line class="st0" x1="848.1" y1="32" x2="897.2" y2="32"/>
</g>
<g>
	<rect x="929.2" y="-25.7" class="st12" width="61.5" height="85"/>
	<rect x="937.6" y="-16" class="st12" width="14.5" height="17.5"/>
	<rect x="966.5" y="-16" class="st12" width="14.5" height="17.5"/>
	<rect x="937.6" y="9.3" class="st12" width="14.5" height="17.5"/>
	<rect x="966.5" y="9.3" class="st12" width="14.5" height="17.5"/>
	<rect x="952.1" y="35.2" class="st12" width="14.5" height="24.1"/>
	<g>
		<line class="st13" x1="914.6" y1="-17.2" x2="918.1" y2="-13.7"/>
		<line class="st13" x1="911.7" y1="-6.4" x2="916.5" y2="-6.4"/>
		<line class="st13" x1="914.6" y1="3.5" x2="918.1" y2="0.1"/>
	</g>
	<line class="st14" x1="944.8" y1="0.2" x2="944.8" y2="-7"/>
	<path class="st14" d="M948.7-7c0-2.1-1.7-3.9-3.9-3.9S941-9.1,941-7H948.7z"/>
	<line class="st14" x1="941.5" y1="-5.8" x2="941.5" y2="-3.4"/>
	<circle cx="941.8" cy="-3.4" r="0.9"/>
</g>
<g>
	<polyline class="st1" points="1052.1,28.6 1044.9,38.4 1039.9,38.4 1033,28.2 	"/>
	<path class="st1" d="M1044.5,43.8c0,1.2-1,2.2-2.3,2.2c-1.2,0-2.2-1-2.2-2.2c0-1.2,1-2.3,2.2-2.3
		C1043.5,41.6,1044.5,42.6,1044.5,43.8z"/>
	<g>
		<path class="st1" d="M1060.5,28.2c-7.5,0-29,0-37.3,0c-9,0-17.5,15.6-17.5,29.9c14.3,0,61.2,0,72.3,0
			C1078,42.2,1069.5,28.2,1060.5,28.2z"/>
		<circle class="st1" cx="1041.1" cy="-3.4" r="21.4"/>
		<g>
			<defs>
				<circle id="SVGID_3_" cx="1041.1" cy="-3.4" r="21.4"/>
			</defs>
			<clipPath id="SVGID_4_">
				<use xlink:href="#SVGID_3_"  style="overflow:visible;"/>
			</clipPath>
			<path class="st15" d="M1030.2-44.2c-11.6,0-21.1,9.4-21.1,21.1c0,11.6,9.4,21.1,21.1,21.1c5.9,0,11.2-2.4,15-6.3
				c0.9,5.9,6,10.5,12.2,10.5c6.8,0,12.3-5.5,12.3-12.3c0-6.8-5.5-12.3-12.3-12.3"/>
		</g>
	</g>
	<polyline class="st1" points="1060,29.1 1060,44.7 1044.5,38.1 	"/>
	<polyline class="st1" points="1025,29.1 1025,44.7 1040.5,38.1 	"/>
</g>
<g>
	<path class="st1" d="M1110.9,28.2c0,3.8,4.7,6.9,10.5,6.9c5.8,0,10.5-3.1,10.5-6.9"/>
	<g>
		<path class="st1" d="M1140.1,28.5c-7.5,0-28.7,0-36.9,0c-8.9,0-17.3,15.5-17.3,29.7c14.2,0,60.6,0,71.6,0
			C1157.5,42.4,1149,28.5,1140.1,28.5z"/>
		<circle class="st1" cx="1120.9" cy="-2.9" r="21.3"/>
		<g>
			<defs>
				<circle id="SVGID_5_" cx="1120.9" cy="-2.9" r="21.3"/>
			</defs>
			<clipPath id="SVGID_6_">
				<use xlink:href="#SVGID_5_"  style="overflow:visible;"/>
			</clipPath>
			<path class="st16" d="M1110.1-43.3c-11.5,0-20.9,9.4-20.9,20.9c0,11.5,9.4,20.9,20.9,20.9c5.8,0,11.1-2.4,14.9-6.3
				c0.9,5.9,5.9,10.4,12.1,10.4c6.7,0,12.2-5.5,12.2-12.2c0-6.7-5.5-12.2-12.2-12.2"/>
		</g>
	</g>
	<path class="st1" d="M1141.3,4.3c0,5.2,4.2,9.4,9.4,9.4"/>
	<path class="st1" d="M1091.3,13.8c5.2,0,9.4-4.2,9.4-9.4"/>
	<path class="st1" d="M1091.8,13.6c4.6,6.9,14,8.8,21,4.2"/>
	<path class="st1" d="M1150.2,13.6c-4.6,6.9-14,8.8-21,4.2"/>
	<line class="st1" x1="1122.1" y1="35.7" x2="1122.1" y2="58.1"/>
</g>
<g>
	<path class="st0" d="M1209.7,58.2"/>
	<path class="st0" d="M1181.3,29.8"/>
	<line class="st0" x1="1227.5" y1="-16.3" x2="1255.9" y2="12.1"/>
	<line class="st0" x1="1221.5" y1="-10.4" x2="1249.9" y2="18"/>
	<path class="st0" d="M1181.3,29.8v28.4h28.4l51.4-51.4c0,0,9.4-11.1-4-24.4c-13.4-13.4-24.4-4-24.4-4L1181.3,29.8z"/>
	<polyline class="st0" points="1180.8,30.4 1195.4,30.4 1195.4,44.2 1209.2,44.2 1209.2,58.7 	"/>
	<line class="st0" x1="1242.6" y1="10.7" x2="1209.2" y2="44.2"/>
	<line class="st0" x1="1228.8" y1="-3.1" x2="1195.4" y2="30.4"/>
	<rect x="1181.3" y="50.4" class="st5" width="7.5" height="7.5"/>
</g>
<g>
	<polygon class="st0" points="1315.4,-25.9 1277.4,12.1 1281.4,12.1 1281.4,59.3 1350.3,59.3 1350.3,11 1354.9,11 	"/>
	<circle class="st0" cx="1316.2" cy="2.5" r="10.2"/>
	<path class="st0" d="M1328.6,59.1h-24.8V26.8c0-0.9,0.8-1.7,1.7-1.7h21.4c0.9,0,1.7,0.8,1.7,1.7V59.1z"/>
</g>
<g>
	<g>
		<rect x="1407.4" y="4" class="st1" width="43.3" height="54.9"/>
		<polygon class="st1" points="1407.4,58.9 1387.5,58.9 1387.5,12.8 1407.4,-4.5 		"/>
		<polygon class="st1" points="1387.5,58.9 1367.6,58.9 1367.6,12.8 1387.5,-4.5 		"/>
		<rect x="1433.4" y="10.8" class="st1" width="11" height="20.8"/>
		<rect x="1414.4" y="10.8" class="st1" width="11" height="20.8"/>
		<rect x="1393.3" y="22.5" class="st1" width="9" height="20.8"/>
		<path class="st1" d="M1402.3-0.4l-9,8.3v-19.3c0-0.8,0.6-1.4,1.4-1.4h6.1c0.8,0,1.4,0.6,1.4,1.4V-0.4z"/>
		<path class="st1" d="M1382.1-0.4l-9,8.3v-19.3c0-0.8,0.6-1.4,1.4-1.4h6.1c0.8,0,1.4,0.6,1.4,1.4V-0.4z"/>
		<rect x="1372" y="22.5" class="st1" width="9" height="20.8"/>
		<path class="st1" d="M1425.4,4H1415V-7.3c0-0.6,0.5-1,1-1h8.3c0.6,0,1,0.5,1,1V4z"/>
		<path class="st1" d="M1444.4,4H1434V-7.3c0-0.6,0.5-1,1-1h8.3c0.6,0,1,0.5,1,1V4z"/>
		<rect x="1417.2" y="40" class="st1" width="24.5" height="19"/>
		<path class="st1" d="M1375.5-16.3c0.3-3.8,1.6-5.2,2.6-5.8c2.2-1.2,4.7,0.5,7.3-1c1.3-0.8,1.9-2,2.3-2.8"/>
		<path class="st1" d="M1397.4-16.3c0.3-3.8,1.6-5.2,2.6-5.8c2.2-1.2,4.7,0.5,7.3-1c1.3-0.8,1.9-2,2.3-2.8"/>
		<path class="st1" d="M1419.3-11.4c0.3-3.8,1.6-5.2,2.6-5.8c2.2-1.2,4.7,0.5,7.3-1c1.3-0.8,1.9-2,2.3-2.8"/>
		<path class="st1" d="M1438.3-11.4c0.3-3.8,1.6-5.2,2.6-5.8c2.2-1.2,4.7,0.5,7.3-1c1.3-0.8,1.9-2,2.3-2.8"/>
	</g>
</g>
<g>
	<g>
		<path class="st17" d="M1482.9,28.4v27.3c0,1.6,1.3,3,3,3h36.3c1.7,0,3-1.4,3-3V29.4"/>
	</g>
	<polygon class="st18" points="1545.7,17.8 1504.7,41.3 1463.2,16.6 1504.1,-5.4 	"/>
	<line class="st19" x1="1537.9" y1="22.4" x2="1537.9" y2="39.8"/>
</g>
<g>
	<circle class="st0" cx="1576.2" cy="8.6" r="5.1"/>
	<circle class="st0" cx="1593.2" cy="8.6" r="5.1"/>
	<circle class="st0" cx="1610.2" cy="8.6" r="5.1"/>
	<path class="st0" d="M1628.5,10.5c0-19.5-15.8-35.3-35.3-35.3c-19.5,0-35.3,15.8-35.3,35.3c0,19.5,15.8,35.3,35.3,35.3
		c2.8,0,5.5-0.3,8.1-0.9l-0.5,0.2l13.9,13.1l-2.1-18.2C1622.2,33.7,1628.5,22.9,1628.5,10.5z"/>
</g>
<g>
	<g>
		<defs>
			<rect id="SVGID_7_" x="1644.3" y="3.7" width="79.3" height="34.5"/>
		</defs>
		<clipPath id="SVGID_8_">
			<use xlink:href="#SVGID_7_"  style="overflow:visible;"/>
		</clipPath>
		<g style="clip-path:url(#SVGID_8_);">
			<text transform="matrix(1 0 0 1 1699.9066 14.3554)" style="font-family:'Folio-Light'; font-size:29.2656px;">5</text>
		</g>
		<g style="clip-path:url(#SVGID_8_);">
			<text transform="matrix(1 0 0 1 1699.4291 40.705)" style="font-family:'Folio-Light'; font-size:29.2656px;">6</text>
		</g>
	</g>
	<g>
		<path class="st20" d="M1722,3.7h-77.7c-2.1,0-3.7-1.7-3.7-3.7v-0.3c0-2.1,1.7-3.7,3.7-3.7h77.7c2.1,0,3.7,1.7,3.7,3.7V0
			C1725.7,2,1724.1,3.7,1722,3.7z"/>
	</g>
	<g>
		<path class="st20" d="M1722,58.8h-77.7c-2.1,0-3.7-1.7-3.7-3.7v-0.3c0-2.1,1.7-3.7,3.7-3.7h77.7c2.1,0,3.7,1.7,3.7,3.7v0.3
			C1725.7,57.1,1724.1,58.8,1722,58.8z"/>
	</g>
	<path class="st20" d="M1663.1-4l-7.9,0v-3.8c0-0.8,0.7-1.5,1.5-1.5h4.8c0.8,0,1.5,0.7,1.5,1.5V-4z"/>
	<rect x="1644.3" y="3.7" class="st20" width="79.3" height="47.4"/>
	<line class="st20" x1="1648.3" y1="38.2" x2="1656.5" y2="38.2"/>
	<line class="st20" x1="1659" y1="38.2" x2="1723.6" y2="38.2"/>
	<line class="st20" x1="1649.5" y1="42.3" x2="1649.5" y2="47.8"/>
	<line class="st20" x1="1656.4" y1="42.3" x2="1656.4" y2="47.8"/>
	<line class="st20" x1="1663.3" y1="42.3" x2="1663.3" y2="47.8"/>
	<line class="st20" x1="1670.2" y1="42.3" x2="1670.2" y2="47.8"/>
	<line class="st20" x1="1677" y1="42.3" x2="1677" y2="47.8"/>
	<line class="st20" x1="1683.9" y1="42.3" x2="1683.9" y2="47.8"/>
	<line class="st20" x1="1690.8" y1="42.3" x2="1690.8" y2="47.8"/>
	<line class="st20" x1="1697.7" y1="42.3" x2="1697.7" y2="47.8"/>
	<line class="st20" x1="1704.6" y1="42.3" x2="1704.6" y2="47.8"/>
	<line class="st20" x1="1711.4" y1="42.3" x2="1711.4" y2="47.8"/>
	<line class="st20" x1="1718.3" y1="42.3" x2="1718.3" y2="47.8"/>
	<text transform="matrix(1 0 0 1 1651.8378 30.4511)" style="font-family:'Folio-Light'; font-size:29.2656px;">0</text>
	<text transform="matrix(1 0 0 1 1677.0409 30.4511)" style="font-family:'Folio-Light'; font-size:29.2656px;">1</text>
</g>
<g>
	<g>
		<path class="st0" d="M1806.6-15c1.2,0,2.5,0.1,3.8,0.2c8.3,0.7,17.8,7.7,19,20.9c0,0,0,0.1,0,0.1l0,4.4
			c-1.1,12.6-11.4,18.5-41.6,47.5c-0.4,0.3-0.9,0.3-1.3,0c-30.1-29-40.5-34.9-41.6-47.5l0-4.4c0,0,0-0.1,0-0.1
			c1.2-13.3,10.7-20.2,19-20.9c1.4-0.1,2.6-0.2,3.8-0.2c9.6,0,14.1,3.8,19.4,9.5C1792.4-11.2,1797-15,1806.6-15"/>
	</g>
	<line class="st0" x1="1787.8" y1="-6.1" x2="1781.9" y2="-0.2"/>
	<polyline class="st0" points="1770.2,16.3 1783.2,29.3 1808.6,3.9 	"/>
</g>
<g>
	<line class="st21" x1="1848.9" y1="-16.7" x2="1933.5" y2="-16.7"/>
	<line class="st1" x1="1856.4" y1="-15" x2="1874.5" y2="59"/>
	<line class="st1" x1="1927.7" y1="-15" x2="1909.6" y2="59"/>
	<line class="st1" x1="1915.9" y1="-15" x2="1897.9" y2="59"/>
	<line class="st1" x1="1904.1" y1="-15" x2="1886" y2="59"/>
	<line class="st1" x1="1892.7" y1="-15" x2="1874.6" y2="59"/>
	<line class="st1" x1="1881" y1="-15" x2="1868.7" y2="35.4"/>
	<line class="st1" x1="1869.4" y1="-15" x2="1862.9" y2="11.6"/>
	<line class="st1" x1="1868.1" y1="-15" x2="1886.2" y2="59"/>
	<line class="st1" x1="1879.9" y1="-15" x2="1897.9" y2="59"/>
	<line class="st1" x1="1891.6" y1="-15" x2="1909.6" y2="59"/>
	<line class="st1" x1="1903.3" y1="-15" x2="1915.2" y2="33.8"/>
	<line class="st1" x1="1915" y1="-15" x2="1920.9" y2="9.4"/>
	<path class="st5" d="M1928.5-11.7h-3.2c-0.9,0-1.7-0.7-1.7-1.7v-3.3h6.5v3.3C1930.1-12.5,1929.4-11.7,1928.5-11.7z"/>
	<path class="st5" d="M1917.3-11.7h-3.2c-0.9,0-1.7-0.7-1.7-1.7v-3.3h6.5v3.3C1919-12.5,1918.2-11.7,1917.3-11.7z"/>
	<path class="st5" d="M1905.5-11.7h-3.2c-0.9,0-1.7-0.7-1.7-1.7v-3.3h6.5v3.3C1907.2-12.5,1906.4-11.7,1905.5-11.7z"/>
	<path class="st5" d="M1894.1-11.7h-3.2c-0.9,0-1.7-0.7-1.7-1.7v-3.3h6.5v3.3C1895.7-12.5,1895-11.7,1894.1-11.7z"/>
	<path class="st5" d="M1881.7-11.7h-3.2c-0.9,0-1.7-0.7-1.7-1.7v-3.3h6.5v3.3C1883.3-12.5,1882.6-11.7,1881.7-11.7z"/>
	<path class="st5" d="M1870.3-11.7h-3.2c-0.9,0-1.7-0.7-1.7-1.7v-3.3h6.5v3.3C1872-12.5,1871.3-11.7,1870.3-11.7z"/>
	<path class="st5" d="M1858.2-11.7h-3.2c-0.9,0-1.7-0.7-1.7-1.7v-3.3h6.5v3.3C1859.9-12.5,1859.2-11.7,1858.2-11.7z"/>
</g>
<g>
	<polygon class="st22" points="1993.2,56.2 1953.3,39.7 1953.3,14.1 1993.2,30.6 	"/>
	<polygon class="st22" points="1993.2,56.2 2033,39.7 2033,14.1 1993.2,30.6 	"/>
	<line class="st22" x1="2001.8" y1="1.6" x2="2008.4" y2="4.3"/>
	<line class="st22" x1="1978.9" y1="3.9" x2="1984.6" y2="1.6"/>
	<polyline class="st22" points="2024.9,10.9 2033,14.1 1993.2,30.6 1953.3,14.1 1962.6,10.4 	"/>
	<ellipse class="st1" cx="1993.2" cy="-1.3" rx="10.1" ry="5.5"/>
	<ellipse class="st1" cx="1993.2" cy="16.8" rx="10.1" ry="5.5"/>
	<ellipse class="st1" cx="1971.1" cy="7.4" rx="10.1" ry="5.5"/>
	<ellipse class="st1" cx="2017.1" cy="7.4" rx="10.1" ry="5.5"/>
</g>
<g>
	<path class="st0" d="M2107.6,57.7h-48c-4,0-7.2-3.2-7.2-7.2v-33c0-4,3.2-7.2,7.2-7.2h48c4,0,7.2,3.2,7.2,7.2v33
		C2114.9,54.4,2111.6,57.7,2107.6,57.7z"/>
	<circle class="st0" cx="2093.1" cy="-4.4" r="13.8"/>
	<circle class="st0" cx="2069" cy="0.3" r="9.5"/>
	<path class="st0" d="M2115.1,47.1l15.4,7.5c0.7,0.3,1.4-0.2,1.4-0.9V14.2c0-0.7-0.8-1.2-1.4-0.9l-15.4,7.5"/>
	<path class="st0" d="M2114.5,46.2"/>
</g>
<g>
	<ellipse class="st23" cx="2294.7" cy="25.6" rx="6.9" ry="9.1"/>
	<g>
		<g>
			<line class="st24" x1="2287.1" y1="-3" x2="2279.5" y2="4.9"/>
			<line class="st24" x1="2287.2" y1="4.8" x2="2279.3" y2="-2.8"/>
		</g>
		<g>
			<line class="st24" x1="2309.8" y1="-3" x2="2302.2" y2="4.9"/>
			<line class="st24" x1="2310" y1="4.8" x2="2302.1" y2="-2.8"/>
		</g>
	</g>
	<path class="st23" d="M2317.8,4.9c0-16.6-12.9-30-28.8-30l0,0c-15.9,0-28.8,13.4-28.8,30v41.3c0,0.2,0,0.5,0,0.7
		c0,4.3-2.3,8-5.8,10c1.7,1,3.7,1.6,5.8,1.6c2.1,0,4.1-0.6,5.7-1.5c1.7,1,3.6,1.5,5.7,1.5c2.1,0,4.1-0.6,5.7-1.5
		c1.7,1,3.6,1.5,5.7,1.5c2.1,0,4.1-0.6,5.7-1.5c1.7,1,3.6,1.5,5.7,1.5c2.1,0,4.1-0.6,5.7-1.5c1.7,1,3.6,1.5,5.7,1.5
		c6.4,0,11.6-5.2,11.6-11.6h0V4.9z"/>
</g>
<g>
	<g>
		<g>
			<path class="st0" d="M2371.8,2.1v-5.7h-14.9v5.7c-11.8,3.3-20.5,14.1-20.5,26.9c0,15.4,12.5,27.9,27.9,27.9
				c15.4,0,27.9-12.5,27.9-27.9C2392.2,16.2,2383.6,5.4,2371.8,2.1z"/>
		</g>
	</g>
	<path class="st0" d="M2393.5-4.2c0,4-3.2,7.2-7.2,7.2c-4,0-7.2-3.2-7.2-7.2l0-0.2c0-4-3.2-7.2-7.2-7.2c-4,0-7.2,3.2-7.2,7.2"/>
	<path class="st0" d="M2393.5-4.2c0-5.5,4.4-9.9,9.9-9.9"/>
	<polygon points="2398.3,-17.4 2403.5,-21.6 2400.9,-15.4 2407.5,-16.5 2402.1,-12.5 2408.4,-10.1 2401.8,-9.2 2406,-4.1 
		2399.8,-6.7 2400.9,-0.1 2396.9,-5.4 2394.5,0.8 2393.6,-5.8 2388.5,-1.6 2391.1,-7.7 2384.5,-6.7 2389.8,-10.7 2383.6,-13.1 
		2390.2,-13.9 2386,-19.1 2392.1,-16.5 2391,-23.1 2395.1,-17.8 2397.4,-24 	"/>
	<path class="st0" d="M2343.2,22.6"/>
	<g>
		<path class="st0" d="M2343.2,22.6c0.9-3.1,2.5-5.9,4.7-8.3"/>
		<path class="st0" d="M2364.3,51.1c-12.2,0-22.1-9.9-22.1-22.1"/>
	</g>
</g>
</svg>
